<svg width="25" height="25" viewBox="0 0 25 25" fill="none" xmlns="http://www.w3.org/2000/svg">
<path d="M24.4141 10.9375H22.9314C22.2521 6.36353 18.6365 2.74785 14.0625 2.06855V0.585938C14.0625 0.262354 13.8001 0 13.4766 0H11.5234C11.1999 0 10.9375 0.262354 10.9375 0.585938V2.06855C6.36353 2.74785 2.74785 6.36353 2.06855 10.9375H0.585938C0.262354 10.9375 0 11.1999 0 11.5234V13.4766C0 13.8001 0.262354 14.0625 0.585938 14.0625H2.06855C2.74785 18.6365 6.36353 22.2521 10.9375 22.9314V24.4141C10.9375 24.7376 11.1999 25 11.5234 25H13.4766C13.8001 25 14.0625 24.7376 14.0625 24.4141V22.9314C18.6365 22.2521 22.2521 18.6365 22.9314 14.0625H24.4141C24.7376 14.0625 25 13.8001 25 13.4766V11.5234C25 11.1999 24.7376 10.9375 24.4141 10.9375ZM14.0625 19.7575V17.7734C14.0625 17.4499 13.8001 17.1875 13.4766 17.1875H11.5234C11.1999 17.1875 10.9375 17.4499 10.9375 17.7734V19.7575C8.09697 19.152 5.84878 16.9064 5.24248 14.0625H7.22656C7.55015 14.0625 7.8125 13.8001 7.8125 13.4766V11.5234C7.8125 11.1999 7.55015 10.9375 7.22656 10.9375H5.24248C5.84805 8.09697 8.0936 5.84878 10.9375 5.24248V7.22656C10.9375 7.55015 11.1999 7.8125 11.5234 7.8125H13.4766C13.8001 7.8125 14.0625 7.55015 14.0625 7.22656V5.24248C16.903 5.84805 19.1512 8.0936 19.7575 10.9375H17.7734C17.4499 10.9375 17.1875 11.1999 17.1875 11.5234V13.4766C17.1875 13.8001 17.4499 14.0625 17.7734 14.0625H19.7575C19.152 16.903 16.9064 19.1512 14.0625 19.7575ZM14.0625 12.5C14.0625 13.3629 13.3629 14.0625 12.5 14.0625C11.6371 14.0625 10.9375 13.3629 10.9375 12.5C10.9375 11.6371 11.6371 10.9375 12.5 10.9375C13.3629 10.9375 14.0625 11.6371 14.0625 12.5Z" fill="#FB0707"/>
</svg>
